<?xml version="1.0" encoding="UTF-8" standalone="no"?>
<!DOCTYPE svg PUBLIC "-//W3C//DTD SVG 1.1//EN"
 "http://www.w3.org/Graphics/SVG/1.1/DTD/svg11.dtd">
<!-- Generated by graphviz version 2.47.3 (20210619.1520)
 -->
<!-- Title: dependencies Pages: 1 -->
<svg width="210pt" height="250pt"
 viewBox="0.00 0.00 210.00 249.80" xmlns="http://www.w3.org/2000/svg" xmlns:xlink="http://www.w3.org/1999/xlink">
<g id="graph0" class="graph" transform="scale(1 1) rotate(0) translate(4 245.8)">
<title>dependencies</title>
<polygon fill="white" stroke="transparent" points="-4,4 -4,-245.8 206,-245.8 206,4 -4,4"/>
<text text-anchor="middle" x="101" y="-8.2" font-family="sans-serif" font-size="14.00">dependencies</text>
<g id="clust1" class="cluster">
<title>cluster_AppModule</title>
<polygon fill="none" stroke="black" stroke-dasharray="1,5" points="28,-108.8 28,-233.8 174,-233.8 174,-108.8 28,-108.8"/>
</g>
<g id="clust3" class="cluster">
<title>cluster_AppModule_imports</title>
<polygon fill="none" stroke="black" points="36,-116.8 36,-168.8 166,-168.8 166,-116.8 36,-116.8"/>
</g>
<g id="clust7" class="cluster">
<title>cluster_GeofenceModule</title>
<polygon fill="none" stroke="black" stroke-dasharray="1,5" points="8,-32.8 8,-100.8 194,-100.8 194,-32.8 8,-32.8"/>
</g>
<g id="clust12" class="cluster">
<title>cluster_GeofenceModule_providers</title>
<polygon fill="none" stroke="black" points="16,-40.8 16,-92.8 186,-92.8 186,-40.8 16,-40.8"/>
</g>
<!-- GeofenceModule -->
<g id="node1" class="node">
<title>GeofenceModule</title>
<polygon fill="#8dd3c7" stroke="black" points="157.68,-160.8 154.68,-164.8 133.68,-164.8 130.68,-160.8 44.32,-160.8 44.32,-124.8 157.68,-124.8 157.68,-160.8"/>
<text text-anchor="middle" x="101" y="-138.6" font-family="Times,serif" font-size="14.00">GeofenceModule</text>
</g>
<!-- AppModule -->
<g id="node2" class="node">
<title>AppModule</title>
<polygon fill="#8dd3c7" stroke="black" points="142.66,-225.8 139.66,-229.8 118.66,-229.8 115.66,-225.8 59.34,-225.8 59.34,-189.8 142.66,-189.8 142.66,-225.8"/>
<text text-anchor="middle" x="101" y="-203.6" font-family="Times,serif" font-size="14.00">AppModule</text>
</g>
<!-- GeofenceModule&#45;&gt;AppModule -->
<g id="edge1" class="edge">
<title>GeofenceModule&#45;&gt;AppModule</title>
<path fill="none" stroke="black" d="M101,-160.91C101,-160.91 101,-179.79 101,-179.79"/>
<polygon fill="black" stroke="black" points="97.5,-179.79 101,-189.79 104.5,-179.79 97.5,-179.79"/>
</g>
<!-- GeofenceService -->
<g id="node3" class="node">
<title>GeofenceService</title>
<ellipse fill="#fdb462" stroke="black" cx="101" cy="-66.8" rx="76.96" ry="18"/>
<text text-anchor="middle" x="101" y="-62.6" font-family="Times,serif" font-size="14.00">GeofenceService</text>
</g>
<!-- GeofenceService&#45;&gt;GeofenceModule -->
<g id="edge2" class="edge">
<title>GeofenceService&#45;&gt;GeofenceModule</title>
<path fill="none" stroke="black" d="M101,-84.81C101,-84.81 101,-114.65 101,-114.65"/>
<polygon fill="black" stroke="black" points="97.5,-114.65 101,-124.65 104.5,-114.65 97.5,-114.65"/>
</g>
</g>
</svg>
